<svg id="SvgjsSvg1001" width="256" height="256" xmlns="http://www.w3.org/2000/svg" version="1.1" xmlns:xlink="http://www.w3.org/1999/xlink" xmlns:svgjs="http://svgjs.com/svgjs"><defs id="SvgjsDefs1002"></defs><g id="SvgjsG1008"><svg xmlns="http://www.w3.org/2000/svg" viewBox="0 0 25 25" width="256" height="256"><path d="M14.4853701,5.5 C14.4853701,5.77614237 14.2615125,6 13.9853701,6 C13.7092277,6 13.4853701,5.77614237 13.4853701,5.5 L13.4853701,2.5 C13.4853701,2.22385763 13.7092277,2 13.9853701,2 C14.2615125,2 14.4853701,2.22385763 14.4853701,2.5 L14.4853701,5.5 Z M11.7593042,5.21842171 C11.876007,5.46869169 11.7677294,5.76618192 11.5174594,5.88288473 C11.2671894,5.99958754 10.9696992,5.89130996 10.8529964,5.64103997 L10.219069,4.28157829 C10.1023662,4.03130831 10.2106438,3.73381808 10.4609138,3.61711527 C10.7111837,3.50041246 11.008674,3.60869004 11.1253768,3.85896003 L11.7593042,5.21842171 Z M17.1177438,5.64103997 C17.001041,5.89130996 16.7035507,5.99958754 16.4532807,5.88288473 C16.2030108,5.76618192 16.0947332,5.46869169 16.211436,5.21842171 L16.8453634,3.85896003 C16.9620662,3.60869004 17.2595564,3.50041246 17.5098264,3.61711527 C17.7600964,3.73381808 17.868374,4.03130831 17.7516712,4.28157829 L17.1177438,5.64103997 Z M7.48927778,18.3894461 C7.46541637,18.3322105 7.44660299,18.2720339 7.43345675,18.2093851 L5.54766773,9.22260151 C5.53435848,9.19571591 5.52328887,9.16724625 5.51476097,9.13736056 L4.61951259,6 L2.49936392,6 C2.22357284,6 2,5.77614237 2,5.5 C2,5.22385763 2.22357284,5 2.49936392,5 L5.37285441,5 L6.24049328,8.0406042 C6.26564596,8.03323426 6.29128107,8.02678932 6.31736877,8.02131507 C6.38490578,8.00714309 6.45372835,8 6.52273627,8 L22.5000253,8 C23.0523101,8 23.5000253,8.44771525 23.5000253,9 C23.5000253,9.06666939 23.4933582,9.13317168 23.4801234,9.19851422 L21.8263742,17.3633516 C21.736926,17.8049719 21.3631783,18.1322265 20.913613,18.1625677 L8.47947853,19.0017479 C8.4193969,19.0058028 8.36006312,19.0044375 8.30199259,18.9980425 L7.80156309,20.0003536 L20.9758288,20.0003536 C21.2516199,20.0003536 21.4751927,20.2242112 21.4751927,20.5003536 C21.4751927,20.7764959 21.2516199,21.0003536 20.9758288,21.0003536 L6.99363916,21.0003536 C6.62243643,21.0003536 6.38099528,20.6092269 6.54697871,20.2767784 L7.48927778,18.3894461 Z M8.99109483,23.5 C8.43951268,23.5 7.992367,23.0522847 7.992367,22.5 C7.992367,21.9477153 8.43951268,21.5 8.99109483,21.5 C9.54267698,21.5 9.98982266,21.9477153 9.98982266,22.5 C9.98982266,23.0522847 9.54267698,23.5 8.99109483,23.5 Z M19.977101,23.5 C19.4255188,23.5 18.9783732,23.0522847 18.9783732,22.5 C18.9783732,21.9477153 19.4255188,21.5 19.977101,21.5 C20.5286831,21.5 20.9758288,21.9477153 20.9758288,22.5 C20.9758288,23.0522847 20.5286831,23.5 19.977101,23.5 Z" fill="#fe9991" class="color000 svgShape"></path></svg></g></svg>