<svg data-v-6805eed4="" version="1.0" xmlns="http://www.w3.org/2000/svg" xmlns:xlink="http://www.w3.org/1999/xlink" width="100%" height="100%" viewBox="0 0 340.000000 250.000000" preserveAspectRatio="xMidYMid meet" color-interpolation-filters="sRGB" style="margin: auto;"> <rect data-v-6805eed4="" x="0" y="0" width="100%" height="100%" fill="#f7e7e7" fill-opacity="1" class="background"></rect> <rect data-v-6805eed4="" x="0" y="0" width="100%" height="100%" fill="url(#watermark)" fill-opacity="1" class="watermarklayer"></rect> <g data-v-6805eed4="" class="iconmbgsvg" transform="translate(92.01313781738281,55)"><g fill="#333333" hollow-target="textRect"><g transform="translate(7.9868621826171875,0)" mask="url(#c57e6bf9-51d6-4fc0-b4a2-0f3edb5096e0)"><g><rect fill="#333333" fill-opacity="0" stroke-width="2" x="0" y="0" width="140" height="140" class="image-rect"></rect> <svg filter="url(#colors5384774399)" x="0" y="0" width="140" height="140" filtersec="colorsf4004374778" class="image-svg-svg primary" style="overflow: visible;"><svg fill="#000000" xmlns="http://www.w3.org/2000/svg" xmlns:xlink="http://www.w3.org/1999/xlink" version="1.1" x="0px" y="0px" viewBox="5 5 90 90" style="enable-background:new 0 0 100 100;" xml:space="preserve"><path d="M50,5C25.2,5,5,25.2,5,50s20.2,45,45,45s45-20.2,45-45S74.8,5,50,5z M87.7,34.4c0.7,1.6,1.3,3.3,1.7,5.1l-2,0.5  c-0.4-1.6-1-3.2-1.6-4.8L87.7,34.4z M82.4,25.2c1.1,1.4,2.1,2.9,3,4.4l-1.8,1c-0.8-1.5-1.8-2.9-2.8-4.2L82.4,25.2z M74.9,17.7  c1.4,1.1,2.8,2.3,4,3.5l-1.5,1.5c-1.2-1.2-2.5-2.3-3.8-3.3L74.9,17.7z M65.7,12.3c1.6,0.7,3.2,1.5,4.8,2.4l-1.1,1.8  c-1.5-0.8-3-1.6-4.5-2.3L65.7,12.3z M55.4,9.5c1.8,0.2,3.5,0.6,5.2,1l-0.5,2c-1.6-0.4-3.3-0.8-5-1L55.4,9.5z M10.6,39.4l2,0.5  c-0.4,1.6-0.8,3.3-1,5l-2.1-0.3C9.8,42.9,10.1,41.1,10.6,39.4z M9.2,50l2.1,0v0c0,1.7,0.1,3.4,0.3,5l-2.1,0.3  C9.3,53.6,9.2,51.8,9.2,50z M12.3,65.6c-0.7-1.6-1.3-3.3-1.7-5.1l2-0.5c0.4,1.6,1,3.2,1.6,4.8L12.3,65.6z M12.3,34.4  c0.7-1.6,1.5-3.2,2.4-4.8l1.8,1c-0.8,1.5-1.6,3-2.2,4.5L12.3,34.4z M17.6,74.8c-1.1-1.4-2.1-2.9-3-4.4l1.8-1  c0.8,1.5,1.8,2.9,2.8,4.2L17.6,74.8z M17.6,25.1c1.1-1.4,2.3-2.8,3.5-4l1.5,1.5c-1.2,1.2-2.3,2.5-3.3,3.8L17.6,25.1z M25.1,82.4  c-1.4-1.1-2.8-2.3-4-3.5l1.5-1.5c1.2,1.2,2.5,2.3,3.8,3.3L25.1,82.4z M25.2,17.6c1.4-1.1,2.9-2.1,4.4-3l1,1.8  c-1.5,0.8-2.9,1.8-4.2,2.8L25.2,17.6z M34.3,87.7c-1.6-0.7-3.2-1.5-4.8-2.4l1-1.8c1.5,0.8,3,1.6,4.5,2.2L34.3,87.7z M34.4,12.3  c1.6-0.7,3.3-1.3,5.1-1.7l0.5,2c-1.6,0.4-3.2,1-4.8,1.6L34.4,12.3z M44.6,90.5c-1.8-0.2-3.5-0.6-5.2-1l0.5-2c1.6,0.4,3.3,0.8,5,1  L44.6,90.5z M44.7,9.5c1.8-0.2,3.5-0.3,5.3-0.3h0.1v2.1H50c-1.7,0-3.4,0.1-5.1,0.3L44.7,9.5z M50,90.8l0-2.1h0c1.7,0,3.4-0.1,5-0.3  l0.3,2.1C53.5,90.7,51.8,90.8,50,90.8z M60.5,89.4l-0.5-2c1.6-0.4,3.2-1,4.8-1.6l0.8,1.9C63.9,88.4,62.2,89,60.5,89.4z M70.4,85.4  l-1-1.8c1.5-0.8,2.9-1.8,4.2-2.8l1.3,1.7C73.4,83.5,71.9,84.5,70.4,85.4z M78.8,78.9l-1.5-1.5c1.2-1.2,2.3-2.5,3.3-3.8l1.7,1.3  C81.3,76.3,80.1,77.6,78.8,78.9z M85.3,70.5l-1.8-1.1c0.8-1.5,1.6-3,2.2-4.5l1.9,0.8C87,67.3,86.2,68.9,85.3,70.5z M89.4,60.6  l-2-0.5c0.4-1.6,0.8-3.3,1-5l2.1,0.3C90.2,57.2,89.9,58.9,89.4,60.6z M88.7,50.1L88.7,50.1c0-1.7-0.1-3.4-0.3-5.1l2.1-0.3  c0.2,1.7,0.3,3.5,0.3,5.3v0.1H88.7z"></path></svg></svg> <defs><filter id="colors5384774399"><feColorMatrix type="matrix" values="0 0 0 0 0.99609375  0 0 0 0 0.6015625  0 0 0 0 0.5703125  0 0 0 1 0" class="icon-fecolormatrix"></feColorMatrix></filter> <filter id="colorsf4004374778"><feColorMatrix type="matrix" values="0 0 0 0 0.99609375  0 0 0 0 0.99609375  0 0 0 0 0.99609375  0 0 0 1 0" class="icon-fecolormatrix"></feColorMatrix></filter> <filter id="colorsb757973176"><feColorMatrix type="matrix" values="0 0 0 0 0  0 0 0 0 0  0 0 0 0 0  0 0 0 1 0" class="icon-fecolormatrix"></feColorMatrix></filter></defs></g></g> <g transform="translate(0,44.84700012207031)"><g data-gra="path-name" fill-rule="" class="tp-name" transform="translate(0,0)"><g transform="scale(1)"><g><path d="M14.01 0.24Q13.03 0.24 12.27-0.32 11.52-0.88 11.12-1.96L11.12-1.96 1.52-31.46Q1.37-32 1.37-32.29L1.37-32.29Q1.32-33.22 1.94-33.83 2.55-34.45 3.53-34.45L3.53-34.45Q4.31-34.45 4.9-33.96 5.49-33.47 5.73-32.68L5.73-32.68 13.96-5.63 22.25-32.59Q22.49-33.42 23.2-33.93 23.91-34.45 24.79-34.45L24.79-34.45Q25.68-34.45 26.39-33.93 27.1-33.42 27.34-32.59L27.34-32.59 35.62-5.63 43.86-32.68Q44.1-33.47 44.69-33.96 45.28-34.45 46.06-34.45L46.06-34.45Q47.04-34.45 47.65-33.83 48.27-33.22 48.22-32.29L48.22-32.29Q48.22-32 48.07-31.46L48.07-31.46 38.47-1.96Q38.07-0.88 37.31-0.32 36.55 0.24 35.57 0.24L35.57 0.24Q34.59 0.24 33.79-0.37 32.98-0.98 32.68-1.96L32.68-1.96 24.79-26.95 16.91-1.96Q16.61-0.98 15.8-0.37 14.99 0.24 14.01 0.24L14.01 0.24ZM55.62 0.24Q54.68 0.24 54.05-0.39 53.41-1.03 53.41-1.96L53.41-1.96 53.41-33.76Q53.41-34.69 54.05-35.35 54.68-36.02 55.62-36.02L55.62-36.02Q56.55-36.02 57.21-35.35 57.87-34.69 57.87-33.76L57.87-33.76 57.87-20.97Q59.73-23.03 61.89-24.26 64.04-25.48 66.98-25.48L66.98-25.48Q69.68-25.48 71.66-24.21 73.65-22.93 74.7-20.73 75.75-18.52 75.75-15.88L75.75-15.88 75.75-1.96Q75.75-1.03 75.09-0.39 74.43 0.24 73.5 0.24L73.5 0.24Q72.57 0.24 71.93-0.39 71.3-1.03 71.3-1.96L71.3-1.96 71.3-15.39Q71.3-21.36 65.91-21.36L65.91-21.36Q63.45-21.36 61.52-20.09 59.58-18.82 57.87-16.66L57.87-16.66 57.87-1.96Q57.87-1.03 57.21-0.39 56.55 0.24 55.62 0.24L55.62 0.24ZM89.62 0.49Q87.47 0.49 85.63-0.39 83.79-1.27 82.71-2.96 81.63-4.66 81.63-6.86L81.63-6.86Q81.63-10.49 84.5-12.64 87.37-14.8 92.9-14.8L92.9-14.8 98.83-14.8 98.83-15.19Q98.83-18.42 97.24-19.85 95.65-21.27 92.27-21.27L92.27-21.27Q90.41-21.27 88.96-20.97 87.51-20.68 85.75-20.09L85.75-20.09Q85.36-19.99 85.11-19.99L85.11-19.99Q84.38-19.99 83.84-20.53 83.3-21.07 83.3-21.85L83.3-21.85Q83.3-23.18 84.57-23.72L84.57-23.72Q88.74-25.48 93.05-25.48L93.05-25.48Q96.43-25.48 98.76-24.11 101.09-22.74 102.19-20.56 103.29-18.38 103.29-15.83L103.29-15.83 103.29-1.96Q103.29-1.03 102.63-0.39 101.97 0.24 101.04 0.24L101.04 0.24Q100.11 0.24 99.47-0.39 98.83-1.03 98.83-1.96L98.83-1.96 98.83-3.23Q95.21 0.49 89.62 0.49L89.62 0.49ZM91.29-3.43Q93.44-3.43 95.45-4.48 97.46-5.54 98.83-7.11L98.83-7.11 98.83-11.22 93.49-11.22Q86.09-11.22 86.09-7.35L86.09-7.35Q86.09-5.59 87.29-4.51 88.49-3.43 91.29-3.43L91.29-3.43ZM118.83 0.49Q111.67 0.49 111.67-5.98L111.67-5.98 111.67-21.17 108.19-21.17Q107.8-21.17 107.53-21.44 107.26-21.71 107.26-22.1L107.26-22.1Q107.26-22.59 107.7-22.93L107.7-22.93 114.37-29.45Q114.81-29.89 115.2-29.89L115.2-29.89Q115.59-29.89 115.86-29.6 116.13-29.3 116.13-28.91L116.13-28.91 116.13-24.99 121.67-24.99Q122.5-24.99 123.04-24.45 123.58-23.91 123.58-23.08L123.58-23.08Q123.58-22.3 123.04-21.73 122.5-21.17 121.67-21.17L121.67-21.17 116.13-21.17 116.13-6.37Q116.13-4.46 117.04-3.94 117.94-3.43 119.31-3.43L119.31-3.43Q120.3-3.43 121.28-3.72L121.28-3.72Q121.47-3.77 121.69-3.82 121.91-3.87 122.25-3.87L122.25-3.87Q122.94-3.87 123.48-3.36 124.02-2.84 124.02-2.11L124.02-2.11Q124.02-0.98 122.89-0.39L122.89-0.39Q120.98 0.49 118.83 0.49L118.83 0.49ZM130.49-24.11Q129.95-24.11 129.56-24.45 129.16-24.79 129.07-25.33L129.07-25.33Q128.67-27.34 128.33-29.82 127.99-32.29 127.99-34.15L127.99-34.15Q127.99-35.18 128.72-35.89 129.46-36.6 130.49-36.6L130.49-36.6Q131.52-36.6 132.25-35.89 132.99-35.18 132.99-34.15L132.99-34.15Q132.99-32.29 132.64-29.82 132.3-27.34 131.91-25.33L131.91-25.33Q131.81-24.79 131.42-24.45 131.03-24.11 130.49-24.11L130.49-24.11ZM147.88 0.49Q142.98 0.49 138.96-1.72L138.96-1.72Q138.13-2.3 138.13-3.33L138.13-3.33Q138.13-4.12 138.67-4.7 139.21-5.29 140.04-5.29L140.04-5.29Q140.48-5.29 140.92-5.1L140.92-5.1Q142.49-4.41 144.06-4.02 145.63-3.63 147.59-3.63L147.59-3.63Q153.03-3.63 153.03-7.11L153.03-7.11Q153.03-8.23 151.78-8.82 150.53-9.41 147.69-10.14L147.69-10.14Q144.79-10.83 142.91-11.56 141.02-12.3 139.67-13.79 138.33-15.29 138.33-17.74L138.33-17.74Q138.33-21.17 140.8-23.32 143.28-25.48 147.88-25.48L147.88-25.48Q151.66-25.48 154.99-24.26L154.99-24.26Q155.67-24.06 156.04-23.52 156.41-22.98 156.41-22.39L156.41-22.39Q156.41-21.61 155.84-21.02 155.28-20.43 154.45-20.43L154.45-20.43Q154.2-20.43 153.81-20.53L153.81-20.53Q150.97-21.41 148.22-21.41L148.22-21.41Q145.58-21.41 144.08-20.46 142.59-19.5 142.59-17.98L142.59-17.98Q142.59-16.51 143.96-15.83 145.33-15.14 148.22-14.5L148.22-14.5Q151.12-13.77 152.93-13.06 154.74-12.35 156.04-10.83 157.34-9.31 157.34-6.76L157.34-6.76Q157.34-3.63 154.86-1.57 152.39 0.49 147.88 0.49L147.88 0.49Z" transform="translate(-1.3662686347961426, 36.599998474121094)"></path></g> <!----> <!----> <!----> <!----> <!----> <!----> <!----></g></g> <g data-gra="path-slogan" fill-rule="" class="tp-slogan" fill="#333333" transform="translate(54.6468620300293,44.09000015258789)"><!----> <!----> <g transform="scale(1, 1)"><g transform="scale(1)"><path d="M2.49 0L2.49-6.45L0.31-6.45L0.31-7.22L5.59-7.22L5.59-6.45L3.41-6.45L3.41 0L2.49 0ZM9.80-6.48L9.80-3.79L11.01-3.79Q11.86-3.79 12.31-4.14Q12.76-4.49 12.76-5.19L12.76-5.19Q12.76-5.91 12.31-6.19Q11.86-6.48 11.01-6.48L11.01-6.48L9.80-6.48ZM13.88 0L12.85 0L11.11-3.05L9.80-3.05L9.80 0L8.89 0L8.89-7.22L11.14-7.22Q11.69-7.22 12.16-7.11Q12.63-7.01 12.96-6.76Q13.30-6.52 13.48-6.14Q13.67-5.75 13.67-5.19L13.67-5.19Q13.67-4.34 13.23-3.84Q12.79-3.33 12.05-3.15L12.05-3.15L13.88 0ZM17.28 0L17.28-7.22L21.43-7.22L21.43-6.45L18.19-6.45L18.19-4.18L20.93-4.18L20.93-3.40L18.19-3.40L18.19-0.78L21.54-0.78L21.54 0L17.28 0ZM25.07 0L25.07-7.22L26.02-7.22L28.63-2.68L29.41-1.19L29.45-1.19Q29.42-1.74 29.38-2.33Q29.34-2.92 29.34-3.49L29.34-3.49L29.34-7.22L30.21-7.22L30.21 0L29.27 0L26.65-4.54L25.87-6.03L25.82-6.03Q25.87-5.48 25.90-4.91Q25.94-4.34 25.94-3.77L25.94-3.77L25.94 0L25.07 0ZM34.19 0L34.19-7.22L35.99-7.22Q37.67-7.22 38.54-6.29Q39.41-5.37 39.41-3.64L39.41-3.64Q39.41-2.78 39.19-2.11Q38.97-1.43 38.54-0.96Q38.11-0.49 37.48-0.25Q36.85 0 36.04 0L36.04 0L34.19 0ZM35.10-0.75L35.93-0.75Q37.19-0.75 37.83-1.51Q38.46-2.27 38.46-3.64L38.46-3.64Q38.46-5.02 37.83-5.74Q37.19-6.47 35.93-6.47L35.93-6.47L35.10-6.47L35.10-0.75ZM43.90 0L43.90-2.79L41.73-7.22L42.71-7.22L43.65-5.18Q43.83-4.79 43.99-4.40Q44.16-4.01 44.34-3.61L44.34-3.61L44.39-3.61Q44.57-4.01 44.76-4.40Q44.95-4.79 45.11-5.18L45.11-5.18L46.04-7.22L46.99-7.22L44.83-2.79L44.83 0L43.90 0Z" transform="translate(-0.308, 7.215999999999999)"></path></g></g></g></g></g></g><mask id="c57e6bf9-51d6-4fc0-b4a2-0f3edb5096e0"><g fill="white"><g><rect fill-opacity="1" stroke-width="2" x="0" y="0" width="140" height="140" class="image-rect"></rect> <svg x="0" y="0" width="140" height="140" class="image-svg-svg primary" style="overflow: visible;" filter="url(#colorsf4004374778)"><svg xmlns="http://www.w3.org/2000/svg" xmlns:xlink="http://www.w3.org/1999/xlink" version="1.1" x="0px" y="0px" viewBox="5 5 90 90" style="enable-background:new 0 0 100 100;" xml:space="preserve"><path d="M50,5C25.2,5,5,25.2,5,50s20.2,45,45,45s45-20.2,45-45S74.8,5,50,5z M87.7,34.4c0.7,1.6,1.3,3.3,1.7,5.1l-2,0.5  c-0.4-1.6-1-3.2-1.6-4.8L87.7,34.4z M82.4,25.2c1.1,1.4,2.1,2.9,3,4.4l-1.8,1c-0.8-1.5-1.8-2.9-2.8-4.2L82.4,25.2z M74.9,17.7  c1.4,1.1,2.8,2.3,4,3.5l-1.5,1.5c-1.2-1.2-2.5-2.3-3.8-3.3L74.9,17.7z M65.7,12.3c1.6,0.7,3.2,1.5,4.8,2.4l-1.1,1.8  c-1.5-0.8-3-1.6-4.5-2.3L65.7,12.3z M55.4,9.5c1.8,0.2,3.5,0.6,5.2,1l-0.5,2c-1.6-0.4-3.3-0.8-5-1L55.4,9.5z M10.6,39.4l2,0.5  c-0.4,1.6-0.8,3.3-1,5l-2.1-0.3C9.8,42.9,10.1,41.1,10.6,39.4z M9.2,50l2.1,0v0c0,1.7,0.1,3.4,0.3,5l-2.1,0.3  C9.3,53.6,9.2,51.8,9.2,50z M12.3,65.6c-0.7-1.6-1.3-3.3-1.7-5.1l2-0.5c0.4,1.6,1,3.2,1.6,4.8L12.3,65.6z M12.3,34.4  c0.7-1.6,1.5-3.2,2.4-4.8l1.8,1c-0.8,1.5-1.6,3-2.2,4.5L12.3,34.4z M17.6,74.8c-1.1-1.4-2.1-2.9-3-4.4l1.8-1  c0.8,1.5,1.8,2.9,2.8,4.2L17.6,74.8z M17.6,25.1c1.1-1.4,2.3-2.8,3.5-4l1.5,1.5c-1.2,1.2-2.3,2.5-3.3,3.8L17.6,25.1z M25.1,82.4  c-1.4-1.1-2.8-2.3-4-3.5l1.5-1.5c1.2,1.2,2.5,2.3,3.8,3.3L25.1,82.4z M25.2,17.6c1.4-1.1,2.9-2.1,4.4-3l1,1.8  c-1.5,0.8-2.9,1.8-4.2,2.8L25.2,17.6z M34.3,87.7c-1.6-0.7-3.2-1.5-4.8-2.4l1-1.8c1.5,0.8,3,1.6,4.5,2.2L34.3,87.7z M34.4,12.3  c1.6-0.7,3.3-1.3,5.1-1.7l0.5,2c-1.6,0.4-3.2,1-4.8,1.6L34.4,12.3z M44.6,90.5c-1.8-0.2-3.5-0.6-5.2-1l0.5-2c1.6,0.4,3.3,0.8,5,1  L44.6,90.5z M44.7,9.5c1.8-0.2,3.5-0.3,5.3-0.3h0.1v2.1H50c-1.7,0-3.4,0.1-5.1,0.3L44.7,9.5z M50,90.8l0-2.1h0c1.7,0,3.4-0.1,5-0.3  l0.3,2.1C53.5,90.7,51.8,90.8,50,90.8z M60.5,89.4l-0.5-2c1.6-0.4,3.2-1,4.8-1.6l0.8,1.9C63.9,88.4,62.2,89,60.5,89.4z M70.4,85.4  l-1-1.8c1.5-0.8,2.9-1.8,4.2-2.8l1.3,1.7C73.4,83.5,71.9,84.5,70.4,85.4z M78.8,78.9l-1.5-1.5c1.2-1.2,2.3-2.5,3.3-3.8l1.7,1.3  C81.3,76.3,80.1,77.6,78.8,78.9z M85.3,70.5l-1.8-1.1c0.8-1.5,1.6-3,2.2-4.5l1.9,0.8C87,67.3,86.2,68.9,85.3,70.5z M89.4,60.6  l-2-0.5c0.4-1.6,0.8-3.3,1-5l2.1,0.3C90.2,57.2,89.9,58.9,89.4,60.6z M88.7,50.1L88.7,50.1c0-1.7-0.1-3.4-0.3-5.1l2.1-0.3  c0.2,1.7,0.3,3.5,0.3,5.3v0.1H88.7z"></path></svg></svg> <defs>  </defs></g></g> <g transform="translate(-7.9868621826171875,44.84700012207031)"><rect fill="black" fill-opacity="1" x="-3.5" y="-3.5" width="162.97372436523438" height="44.09000015258789"></rect><rect fill="black" fill-opacity="1" x="-3.5" y="-3.5" transform="translate(54.64886203408241,44.09000015258789)" width="53.68000030517578" height="14.21999979019165"></rect></g><g transform="translate(-7.9868621826171875,44.84700012207031)" fill="black"><g data-gra="path-name" fill-rule="" class="tp-name" transform="translate(0,0)"><g transform="scale(1)"><g><path d="M14.01 0.24Q13.03 0.24 12.27-0.32 11.52-0.88 11.12-1.96L11.12-1.96 1.52-31.46Q1.37-32 1.37-32.29L1.37-32.29Q1.32-33.22 1.94-33.83 2.55-34.45 3.53-34.45L3.53-34.45Q4.31-34.45 4.9-33.96 5.49-33.47 5.73-32.68L5.73-32.68 13.96-5.63 22.25-32.59Q22.49-33.42 23.2-33.93 23.91-34.45 24.79-34.45L24.79-34.45Q25.68-34.45 26.39-33.93 27.1-33.42 27.34-32.59L27.34-32.59 35.62-5.63 43.86-32.68Q44.1-33.47 44.69-33.96 45.28-34.45 46.06-34.45L46.06-34.45Q47.04-34.45 47.65-33.83 48.27-33.22 48.22-32.29L48.22-32.29Q48.22-32 48.07-31.46L48.07-31.46 38.47-1.96Q38.07-0.88 37.31-0.32 36.55 0.24 35.57 0.24L35.57 0.24Q34.59 0.24 33.79-0.37 32.98-0.98 32.68-1.96L32.68-1.96 24.79-26.95 16.91-1.96Q16.61-0.98 15.8-0.37 14.99 0.24 14.01 0.24L14.01 0.24ZM55.62 0.24Q54.68 0.24 54.05-0.39 53.41-1.03 53.41-1.96L53.41-1.96 53.41-33.76Q53.41-34.69 54.05-35.35 54.68-36.02 55.62-36.02L55.62-36.02Q56.55-36.02 57.21-35.35 57.87-34.69 57.87-33.76L57.87-33.76 57.87-20.97Q59.73-23.03 61.89-24.26 64.04-25.48 66.98-25.48L66.98-25.48Q69.68-25.48 71.66-24.21 73.65-22.93 74.7-20.73 75.75-18.52 75.75-15.88L75.75-15.88 75.75-1.96Q75.75-1.03 75.09-0.39 74.43 0.24 73.5 0.24L73.5 0.24Q72.57 0.24 71.93-0.39 71.3-1.03 71.3-1.96L71.3-1.96 71.3-15.39Q71.3-21.36 65.91-21.36L65.91-21.36Q63.45-21.36 61.52-20.09 59.58-18.82 57.87-16.66L57.87-16.66 57.87-1.96Q57.87-1.03 57.21-0.39 56.55 0.24 55.62 0.24L55.62 0.24ZM89.62 0.49Q87.47 0.49 85.63-0.39 83.79-1.27 82.71-2.96 81.63-4.66 81.63-6.86L81.63-6.86Q81.63-10.49 84.5-12.64 87.37-14.8 92.9-14.8L92.9-14.8 98.83-14.8 98.83-15.19Q98.83-18.42 97.24-19.85 95.65-21.27 92.27-21.27L92.27-21.27Q90.41-21.27 88.96-20.97 87.51-20.68 85.75-20.09L85.75-20.09Q85.36-19.99 85.11-19.99L85.11-19.99Q84.38-19.99 83.84-20.53 83.3-21.07 83.3-21.85L83.3-21.85Q83.3-23.18 84.57-23.72L84.57-23.72Q88.74-25.48 93.05-25.48L93.05-25.48Q96.43-25.48 98.76-24.11 101.09-22.74 102.19-20.56 103.29-18.38 103.29-15.83L103.29-15.83 103.29-1.96Q103.29-1.03 102.63-0.39 101.97 0.24 101.04 0.24L101.04 0.24Q100.11 0.24 99.47-0.39 98.83-1.03 98.83-1.96L98.83-1.96 98.83-3.23Q95.21 0.49 89.62 0.49L89.62 0.49ZM91.29-3.43Q93.44-3.43 95.45-4.48 97.46-5.54 98.83-7.11L98.83-7.11 98.83-11.22 93.49-11.22Q86.09-11.22 86.09-7.35L86.09-7.35Q86.09-5.59 87.29-4.51 88.49-3.43 91.29-3.43L91.29-3.43ZM118.83 0.49Q111.67 0.49 111.67-5.98L111.67-5.98 111.67-21.17 108.19-21.17Q107.8-21.17 107.53-21.44 107.26-21.71 107.26-22.1L107.26-22.1Q107.26-22.59 107.7-22.93L107.7-22.93 114.37-29.45Q114.81-29.89 115.2-29.89L115.2-29.89Q115.59-29.89 115.86-29.6 116.13-29.3 116.13-28.91L116.13-28.91 116.13-24.99 121.67-24.99Q122.5-24.99 123.04-24.45 123.58-23.91 123.58-23.08L123.58-23.08Q123.58-22.3 123.04-21.73 122.5-21.17 121.67-21.17L121.67-21.17 116.13-21.17 116.13-6.37Q116.13-4.46 117.04-3.94 117.94-3.43 119.31-3.43L119.31-3.43Q120.3-3.43 121.28-3.72L121.28-3.72Q121.47-3.77 121.69-3.82 121.91-3.87 122.25-3.87L122.25-3.87Q122.94-3.87 123.48-3.36 124.02-2.84 124.02-2.11L124.02-2.11Q124.02-0.98 122.89-0.39L122.89-0.39Q120.98 0.49 118.83 0.49L118.83 0.49ZM130.49-24.11Q129.95-24.11 129.56-24.45 129.16-24.79 129.07-25.33L129.07-25.33Q128.67-27.34 128.33-29.82 127.99-32.29 127.99-34.15L127.99-34.15Q127.99-35.18 128.72-35.89 129.46-36.6 130.49-36.6L130.49-36.6Q131.52-36.6 132.25-35.89 132.99-35.18 132.99-34.15L132.99-34.15Q132.99-32.29 132.64-29.82 132.3-27.34 131.91-25.33L131.91-25.33Q131.81-24.79 131.42-24.45 131.03-24.11 130.49-24.11L130.49-24.11ZM147.88 0.49Q142.98 0.49 138.96-1.72L138.96-1.72Q138.13-2.3 138.13-3.33L138.13-3.33Q138.13-4.12 138.67-4.7 139.21-5.29 140.04-5.29L140.04-5.29Q140.48-5.29 140.92-5.1L140.92-5.1Q142.49-4.41 144.06-4.02 145.63-3.63 147.59-3.63L147.59-3.63Q153.03-3.63 153.03-7.11L153.03-7.11Q153.03-8.23 151.78-8.82 150.53-9.41 147.69-10.14L147.69-10.14Q144.79-10.83 142.91-11.56 141.02-12.3 139.67-13.79 138.33-15.29 138.33-17.74L138.33-17.74Q138.33-21.17 140.8-23.32 143.28-25.48 147.88-25.48L147.88-25.48Q151.66-25.48 154.99-24.26L154.99-24.26Q155.67-24.06 156.04-23.52 156.41-22.98 156.41-22.39L156.41-22.39Q156.41-21.61 155.84-21.02 155.28-20.43 154.45-20.43L154.45-20.43Q154.2-20.43 153.81-20.53L153.81-20.53Q150.97-21.41 148.22-21.41L148.22-21.41Q145.58-21.41 144.08-20.46 142.59-19.5 142.59-17.98L142.59-17.98Q142.59-16.51 143.96-15.83 145.33-15.14 148.22-14.5L148.22-14.5Q151.12-13.77 152.93-13.06 154.74-12.35 156.04-10.83 157.34-9.31 157.34-6.76L157.34-6.76Q157.34-3.63 154.86-1.57 152.39 0.49 147.88 0.49L147.88 0.49Z" transform="translate(-1.3662686347961426, 36.599998474121094)"></path></g>       </g></g> <g data-gra="path-slogan" fill-rule="" class="tp-slogan" transform="translate(54.6468620300293,44.09000015258789)" fill="white">  <g transform="scale(1, 1)"><g transform="scale(1)"><path d="M2.49 0L2.49-6.45L0.31-6.45L0.31-7.22L5.59-7.22L5.59-6.45L3.41-6.45L3.41 0L2.49 0ZM9.80-6.48L9.80-3.79L11.01-3.79Q11.86-3.79 12.31-4.14Q12.76-4.49 12.76-5.19L12.76-5.19Q12.76-5.91 12.31-6.19Q11.86-6.48 11.01-6.48L11.01-6.48L9.80-6.48ZM13.88 0L12.85 0L11.11-3.05L9.80-3.05L9.80 0L8.89 0L8.89-7.22L11.14-7.22Q11.69-7.22 12.16-7.11Q12.63-7.01 12.96-6.76Q13.30-6.52 13.48-6.14Q13.67-5.75 13.67-5.19L13.67-5.19Q13.67-4.34 13.23-3.84Q12.79-3.33 12.05-3.15L12.05-3.15L13.88 0ZM17.28 0L17.28-7.22L21.43-7.22L21.43-6.45L18.19-6.45L18.19-4.18L20.93-4.18L20.93-3.40L18.19-3.40L18.19-0.78L21.54-0.78L21.54 0L17.28 0ZM25.07 0L25.07-7.22L26.02-7.22L28.63-2.68L29.41-1.19L29.45-1.19Q29.42-1.74 29.38-2.33Q29.34-2.92 29.34-3.49L29.34-3.49L29.34-7.22L30.21-7.22L30.21 0L29.27 0L26.65-4.54L25.87-6.03L25.82-6.03Q25.87-5.48 25.90-4.91Q25.94-4.34 25.94-3.77L25.94-3.77L25.94 0L25.07 0ZM34.19 0L34.19-7.22L35.99-7.22Q37.67-7.22 38.54-6.29Q39.41-5.37 39.41-3.64L39.41-3.64Q39.41-2.78 39.19-2.11Q38.97-1.43 38.54-0.96Q38.11-0.49 37.48-0.25Q36.85 0 36.04 0L36.04 0L34.19 0ZM35.10-0.75L35.93-0.75Q37.19-0.75 37.83-1.51Q38.46-2.27 38.46-3.64L38.46-3.64Q38.46-5.02 37.83-5.74Q37.19-6.47 35.93-6.47L35.93-6.47L35.10-6.47L35.10-0.75ZM43.90 0L43.90-2.79L41.73-7.22L42.71-7.22L43.65-5.18Q43.83-4.79 43.99-4.40Q44.16-4.01 44.34-3.61L44.34-3.61L44.39-3.61Q44.57-4.01 44.76-4.40Q44.95-4.79 45.11-5.18L45.11-5.18L46.04-7.22L46.99-7.22L44.83-2.79L44.83 0L43.90 0Z" transform="translate(-0.308, 7.215999999999999)"></path></g></g></g></g></mask><defs v-gra="od"></defs></svg>