<svg id="SvgjsSvg1042" width="550" height="550" xmlns="http://www.w3.org/2000/svg" version="1.1" xmlns:xlink="http://www.w3.org/1999/xlink" xmlns:svgjs="http://svgjs.com/svgjs"><defs id="SvgjsDefs1043"></defs><g id="SvgjsG1044"><svg xmlns="http://www.w3.org/2000/svg" enable-background="new 0 0 1364 960" viewBox="0 0 1364 960" width="550" height="550"><ellipse cx="683.695" cy="747.052" fill="#f5e2e1" rx="643.305" ry="17.854" class="colorE2E1F5 svgShape"></ellipse><ellipse cx="979.685" cy="169.021" fill="#ff7f75" rx="173.285" ry="92.355" class="color7775FF svgShape"></ellipse><circle cx="690.667" cy="529.453" r="217.599" fill="#ff867d" transform="rotate(-45.001 690.664 529.464)" class="colorFFD17D svgShape"></circle><path fill="#f57369" d="M769.615,326.629c61.417,38.465,102.269,106.725,102.269,184.538c0,120.176-97.422,217.599-217.599,217.599
	c-27.849,0-54.472-5.24-78.948-14.774c33.438,20.942,72.966,33.061,115.33,33.061c120.177,0,217.599-97.423,217.599-217.599
	C908.266,437.126,850.76,358.237,769.615,326.629z" class="colorF5C469 svgShape"></path><circle cx="608.691" cy="458.675" r="40.11" fill="#ffffff" transform="rotate(-67.5 608.68 458.664)" class="colorFFF svgShape"></circle><circle cx="608.692" cy="459.511" r="28.913" fill="#702e29" class="color2D2970 svgShape"></circle><circle cx="608.692" cy="459.511" r="23.231" fill="#3d100c" class="color0C1B3D svgShape"></circle><path fill="#ffffff" d="M586.213,440.542c0-4.292,3.479-7.771,7.772-7.771c4.292,0,7.771,3.479,7.771,7.771
	s-3.479,7.772-7.771,7.772C589.692,448.314,586.213,444.834,586.213,440.542z" class="colorFFF svgShape"></path><circle cx="772.643" cy="458.675" r="40.11" fill="#ffffff" transform="rotate(-22.5 772.608 458.658)" class="colorFFF svgShape"></circle><circle cx="772.643" cy="459.511" r="28.913" fill="#702e29" class="color2D2970 svgShape"></circle><circle cx="772.643" cy="459.511" r="23.231" fill="#3d100c" class="color0C1B3D svgShape"></circle><path fill="#ffffff" d="M795.121,440.542c0-4.292-3.479-7.771-7.771-7.771c-4.292,0-7.771,3.479-7.771,7.771
	s3.479,7.772,7.771,7.772C791.642,448.314,795.121,444.834,795.121,440.542z" class="colorFFF svgShape"></path><path fill="#3d100c" d="M723.468,589.803c0,9.139-2.011,17.632-5.468,24.706c-5.877,12.046-15.922,19.98-27.333,19.98
	c-11.411,0-21.456-7.934-27.333-19.98c-3.457-7.074-5.468-15.568-5.468-24.706c0-24.68,14.685-44.686,32.801-44.686
	S723.468,565.123,723.468,589.803z" class="color0C1B3D svgShape"></path><path fill="#ff7166" d="M718,614.509c-5.877,12.046-15.922,19.98-27.333,19.98c-11.411,0-21.456-7.934-27.333-19.98
	c5.588-9.071,15.74-15.138,27.333-15.138C702.261,599.371,712.413,605.439,718,614.509z" class="colorF69 svgShape"></path><path fill="#eb574b" d="M690.993,603.398c10.577,1.544,19.187,8.022,23.772,16.69c1.179-1.741,2.269-3.598,3.235-5.578
	c-5.588-9.071-15.74-15.139-27.333-15.139c-9.009,0-17.136,3.675-22.939,9.564C674.205,604.353,682.445,602.148,690.993,603.398z" class="colorEB4B80 svgShape"></path><ellipse cx="563.167" cy="519.218" fill="#ffa8a1" rx="27.227" ry="17.623" class="colorFFDEA1 svgShape"></ellipse><ellipse cx="806.805" cy="519.218" fill="#ffa8a1" rx="27.227" ry="17.623" class="colorFFDEA1 svgShape"></ellipse><path fill="#fe9991" d="M701.33,622.85c-0.805,4.103-7.763,6.193-15.541,4.667c-7.778-1.525-13.432-6.088-12.627-10.191
	c0.805-4.103,7.762-6.193,15.541-4.667C696.481,614.184,702.134,618.747,701.33,622.85z" class="colorFF85AD svgShape"></path><path fill="#ff685c" d="M1161.291,669.178H953.03v-94.025l208.26-247.555h99.64v252.887h51.644v88.693h-51.644v76.905h-99.64
	V669.178z M1161.291,580.485V450.994l-110.042,129.491H1161.291z" class="color715CFF svgShape"></path><rect width="21.432" height="88.693" x="1291.142" y="580.485" fill="#e6483c" class="color523CE6 svgShape"></rect><rect width="21.432" height="252.887" x="1239.498" y="327.598" fill="#e6483c" class="color523CE6 svgShape"></rect><polygon fill="#e6483c" points="1051.249 580.485 1161.291 454.042 1161.291 428.821 1029.817 580.485" class="color523CE6 svgShape"></polygon><rect width="21.432" height="76.905" x="1239.498" y="669.178" fill="#e6483c" class="color523CE6 svgShape"></rect><path fill="#ff685c" d="M245.26,669.178H37v-94.025l208.26-247.555h99.64v252.887h51.644v88.693H344.9v76.905h-99.64V669.178z
	 M245.26,580.485V450.994L135.219,580.485H245.26z" class="color715CFF svgShape"></path><rect width="21.432" height="88.693" x="375.112" y="580.485" fill="#e6483c" class="color523CE6 svgShape"></rect><rect width="21.432" height="252.887" x="323.468" y="327.598" fill="#e6483c" class="color523CE6 svgShape"></rect><polygon fill="#e6483c" points="135.219 580.485 245.26 454.042 245.26 428.821 113.787 580.485" class="color523CE6 svgShape"></polygon><rect width="21.432" height="76.905" x="323.468" y="669.178" fill="#e6483c" class="color523CE6 svgShape"></rect><path fill="#ffffff" d="M864.14 155.675c0-7.777 2.166-13.832 6.498-18.164 4.333-4.332 10.366-6.5 18.099-6.5 7.929 0 14.038 2.129 18.327 6.386 4.289 4.257 6.434 10.22 6.434 17.888 0 5.568-.937 10.133-2.811 13.696-1.874 3.564-4.582 6.337-8.123 8.32-3.542 1.981-7.956 2.973-13.242 2.973-5.372 0-9.819-.855-13.339-2.567-3.521-1.711-6.375-4.42-8.563-8.123C865.233 165.879 864.14 161.243 864.14 155.675zM878.86 155.74c0 4.809.894 8.265 2.681 10.366 1.787 2.101 4.219 3.152 7.295 3.152 3.163 0 5.611-1.029 7.344-3.087 1.733-2.058 2.6-5.751 2.6-11.081 0-4.485-.905-7.761-2.714-9.829-1.809-2.069-4.262-3.104-7.36-3.104-2.969 0-5.351 1.052-7.149 3.153C879.759 147.411 878.86 150.889 878.86 155.74zM918.925 162.304c0-5.263 1.776-9.601 5.329-13.013 3.553-3.412 8.351-5.118 14.395-5.118 6.91 0 12.131 2.004 15.662 6.012 2.838 3.228 4.257 7.203 4.257 11.926 0 5.307-1.76 9.656-5.28 13.046-3.521 3.391-8.389 5.085-14.606 5.085-5.546 0-10.03-1.407-13.453-4.224C921.026 172.53 918.925 167.959 918.925 162.304zM932.183 162.272c0 3.077.622 5.351 1.868 6.824 1.246 1.474 2.811 2.21 4.696 2.21 1.906 0 3.472-.726 4.695-2.178 1.224-1.45 1.836-3.779 1.836-6.986 0-2.99-.618-5.216-1.852-6.679-1.235-1.462-2.762-2.193-4.582-2.193-1.928 0-3.521.743-4.777 2.225C932.811 156.98 932.183 159.239 932.183 162.272zM965.003 192.589v-47.636h12.381v5.102c1.711-2.145 3.282-3.596 4.712-4.354 1.928-1.018 4.062-1.527 6.402-1.527 4.614 0 8.183 1.765 10.707 5.297 2.524 3.531 3.786 7.895 3.786 13.095 0 5.741-1.376 10.122-4.127 13.144-2.751 3.023-6.228 4.533-10.431 4.533-2.037 0-3.894-.346-5.573-1.04-1.679-.693-3.18-1.722-4.5-3.087v16.474H965.003zM978.261 162.304c0 2.73.574 4.755 1.722 6.077 1.147 1.321 2.6 1.983 4.354 1.983 1.537 0 2.827-.633 3.866-1.901 1.04-1.267 1.56-3.417 1.56-6.45 0-2.795-.542-4.847-1.625-6.158-1.083-1.311-2.404-1.966-3.964-1.966-1.69 0-3.098.661-4.224 1.983C978.824 157.192 978.261 159.337 978.261 162.304zM1006.986 169.875l13.128-1.234c.541 1.56 1.3 2.675 2.275 3.347.974.672 2.274 1.007 3.899 1.007 1.776 0 3.152-.379 4.127-1.137.758-.561 1.138-1.264 1.138-2.108 0-.952-.498-1.687-1.495-2.207-.715-.367-2.611-.822-5.686-1.363-4.593-.8-7.783-1.541-9.569-2.223-1.787-.681-3.293-1.834-4.517-3.457-1.224-1.622-1.836-3.472-1.836-5.55 0-2.273.66-4.231 1.982-5.876 1.321-1.644 3.141-2.873 5.459-3.684 2.318-.812 5.427-1.218 9.326-1.218 4.116 0 7.154.314 9.115.943 1.961.629 3.596 1.603 4.907 2.924 1.31 1.322 2.399 3.109 3.265 5.362l-12.543 1.234c-.325-1.104-.867-1.916-1.625-2.437-1.04-.693-2.297-1.039-3.769-1.039-1.494 0-2.583.265-3.266.795-.682.53-1.023 1.173-1.023 1.93 0 .844.433 1.482 1.299 1.914.866.432 2.751.822 5.654 1.168 4.398.497 7.669 1.19 9.814 2.078 2.145.888 3.786 2.153 4.923 3.798 1.137 1.646 1.706 3.452 1.706 5.421 0 1.991-.601 3.928-1.804 5.811-1.202 1.883-3.098 3.382-5.686 4.496-2.589 1.113-6.115 1.671-10.577 1.671-6.304 0-10.794-.898-13.469-2.697C1009.461 175.746 1007.744 173.19 1006.986 169.875zM1050.009 166.204h14.135v13.257h-14.135V166.204zM1072.17 166.204h14.135v13.257h-14.135V166.204zM1094.331 166.204h14.135v13.257h-14.135V166.204z" class="colorFFF svgShape"></path><ellipse cx="825.291" cy="252.064" fill="#ff7f75" rx="21.886" ry="16.453" class="color7775FF svgShape"></ellipse><ellipse cx="791.944" cy="279.925" fill="#ff7f75" rx="12.365" ry="10.167" class="color7775FF svgShape"></ellipse><path fill="#ff7f75" d="M193.096 846.491l17.335-1.085c.375 2.816 1.139 4.961 2.292 6.435 1.877 2.387 4.558 3.581 8.044 3.581 2.601 0 4.605-.61 6.013-1.83 1.408-1.22 2.112-2.635 2.112-4.243 0-1.528-.67-2.896-2.011-4.102-1.341-1.207-4.451-2.346-9.331-3.419-7.991-1.797-13.689-4.184-17.094-7.16-3.433-2.976-5.148-6.769-5.148-11.382 0-3.03.877-5.892 2.634-8.587 1.756-2.695 4.397-4.813 7.924-6.356 3.525-1.541 8.358-2.313 14.499-2.313 7.535 0 13.279 1.402 17.234 4.203 3.955 2.802 6.308 7.26 7.059 13.374l-17.174 1.005c-.457-2.654-1.415-4.586-2.876-5.792-1.461-1.206-3.479-1.809-6.053-1.809-2.119 0-3.714.448-4.786 1.347-1.073.898-1.609 1.991-1.609 3.278 0 .939.443 1.784 1.327 2.533.858.779 2.896 1.503 6.114 2.172 7.963 1.716 13.668 3.453 17.113 5.209 3.445 1.756 5.953 3.935 7.521 6.536 1.569 2.601 2.353 5.511 2.353 8.727 0 3.782-1.046 7.267-3.137 10.458-2.092 3.191-5.015 5.611-8.768 7.26-3.754 1.649-8.486 2.473-14.198 2.473-10.029 0-16.973-1.93-20.835-5.792C195.79 857.351 193.605 852.445 193.096 846.491zM252.662 844.762c0-6.515 2.198-11.885 6.596-16.108 4.397-4.223 10.336-6.335 17.818-6.335 8.553 0 15.015 2.481 19.386 7.441 3.512 3.995 5.269 8.916 5.269 14.761 0 6.57-2.179 11.953-6.536 16.148-4.358 4.198-10.384 6.295-18.079 6.295-6.865 0-12.415-1.743-16.651-5.229C255.262 857.419 252.662 851.76 252.662 844.762zM269.072 844.722c0 3.807.771 6.623 2.313 8.446 1.541 1.823 3.479 2.734 5.812 2.734 2.36 0 4.297-.898 5.812-2.695 1.514-1.795 2.272-4.679 2.272-8.647 0-3.7-.764-6.456-2.292-8.265-1.528-1.809-3.419-2.715-5.671-2.715-2.387 0-4.357.918-5.912 2.755C269.849 838.173 269.072 840.969 269.072 844.722zM309.775 823.285h15.324v6.998c1.474-3.03 2.997-5.115 4.565-6.255 1.568-1.139 3.505-1.709 5.812-1.709 2.413 0 5.054.751 7.923 2.252l-5.068 11.664c-1.93-.804-3.459-1.206-4.585-1.206-2.145 0-3.808.884-4.987 2.654-1.689 2.494-2.534 7.159-2.534 13.997v14.318h-16.45V823.285zM349.794 823.285h15.324v6.998c1.474-3.03 2.997-5.115 4.565-6.255 1.568-1.139 3.505-1.709 5.812-1.709 2.413 0 5.053.751 7.923 2.252l-5.068 11.664c-1.93-.804-3.459-1.206-4.585-1.206-2.145 0-3.808.884-4.987 2.654-1.689 2.494-2.534 7.159-2.534 13.997v14.318h-16.45V823.285zM386.273 823.285h17.273l8.81 28.436 8.182-28.436h16.131l-16.947 45.639c-1.93 5.206-3.9 8.721-5.91 10.545-2.841 2.576-7.17 3.865-12.985 3.865-2.359 0-6.004-.322-10.936-.966l-1.286-11.422c2.357.751 4.983 1.126 7.876 1.126 1.929 0 3.489-.443 4.681-1.328 1.192-.887 2.203-2.471 3.034-4.752L386.273 823.285zM434.337 849.75h17.496v13.474c0 4.96-1.033 8.875-3.097 11.744-2.064 2.869-5.59 5.403-10.578 7.602l-3.821-7.159c3.111-1.448 5.249-2.89 6.415-4.324 1.166-1.434 1.816-3.131 1.951-5.088h-8.366V849.75zM490.203 807.036h30.286c6.596 0 11.536 1.568 14.821 4.705 3.284 3.137 4.927 7.601 4.927 13.393 0 5.952-1.79 10.604-5.37 13.956-3.58 3.353-9.044 5.027-16.39 5.027h-9.974v21.88h-18.301V807.036zM508.503 832.173h4.464c3.513 0 5.979-.609 7.401-1.829 1.421-1.22 2.131-2.782 2.131-4.686 0-1.85-.617-3.419-1.85-4.707-1.233-1.286-3.553-1.93-6.958-1.93h-5.188V832.173zM562.197 837.12l-15.646-1.649c.589-2.734 1.441-4.887 2.554-6.454 1.113-1.569 2.715-2.93 4.806-4.083 1.502-.831 3.566-1.475 6.194-1.93 2.628-.457 5.47-.685 8.526-.685 4.907 0 8.848.275 11.825.825 2.977.55 5.456 1.695 7.441 3.439 1.394 1.206 2.494 2.916 3.298 5.127.804 2.213 1.206 4.324 1.206 6.335v18.864c0 2.012.127 3.586.382 4.726.255 1.14.811 2.594 1.669 4.364H579.09c-.617-1.099-1.019-1.937-1.207-2.514-.188-.577-.375-1.482-.563-2.715-2.145 2.065-4.277 3.539-6.395 4.424-2.896 1.179-6.262 1.77-10.095 1.77-5.095 0-8.963-1.179-11.604-3.54-2.641-2.359-3.962-5.269-3.962-8.728 0-3.245.951-5.913 2.856-8.005 1.904-2.091 5.416-3.646 10.538-4.665 6.14-1.233 10.122-2.098 11.945-2.595 1.823-.495 3.754-1.146 5.792-1.95 0-2.012-.416-3.419-1.246-4.223-.832-.804-2.293-1.206-4.384-1.206-2.682 0-4.693.429-6.033 1.286C563.685 834.01 562.841 835.27 562.197 837.12zM576.395 845.728c-2.252.804-4.599 1.515-7.038 2.131-3.325.885-5.429 1.757-6.314 2.615-.912.884-1.368 1.89-1.368 3.016 0 1.288.449 2.341 1.348 3.158.898.818 2.219 1.227 3.962 1.227 1.823 0 3.519-.443 5.088-1.327 1.569-.886 2.681-1.964 3.338-3.238.657-1.274.986-2.93.986-4.968V845.728zM633.267 823.285h15.324v40.341l.04 1.891c0 2.681-.57 5.234-1.709 7.662-1.14 2.427-2.654 4.39-4.545 5.892-1.891 1.502-4.291 2.587-7.199 3.258-2.91.67-6.241 1.006-9.995 1.006-8.581 0-14.473-1.288-17.677-3.862-3.205-2.574-4.807-6.02-4.807-10.336 0-.537.027-1.261.081-2.172l15.887 1.81c.402 1.475 1.019 2.494 1.85 3.056 1.207.831 2.721 1.247 4.545 1.247 2.359 0 4.123-.63 5.289-1.89 1.167-1.261 1.75-3.46 1.75-6.596v-6.475c-1.608 1.904-3.217 3.284-4.826 4.142-2.521 1.341-5.242 2.012-8.165 2.012-5.711 0-10.324-2.494-13.836-7.482-2.493-3.539-3.74-8.217-3.74-14.036 0-6.65 1.609-11.718 4.826-15.204 3.218-3.485 7.427-5.228 12.629-5.228 3.324 0 6.066.564 8.225 1.69 2.158 1.126 4.176 2.99 6.054 5.59V823.285zM617.862 843.998c0 3.083.657 5.369 1.971 6.858 1.313 1.487 3.042 2.231 5.188 2.231 2.037 0 3.747-.77 5.128-2.313 1.381-1.541 2.072-3.868 2.072-6.977 0-3.111-.724-5.491-2.172-7.14-1.448-1.649-3.217-2.473-5.309-2.473-2.091 0-3.761.758-5.008 2.272C618.486 837.972 617.862 840.485 617.862 843.998zM705.905 848.704h-32.82c.295 2.628 1.006 4.585 2.132 5.872 1.582 1.85 3.646 2.775 6.194 2.775 1.608 0 3.137-.402 4.585-1.206.884-.509 1.836-1.409 2.855-2.695l16.128 1.487c-2.467 4.291-5.443 7.368-8.929 9.231-3.486 1.864-8.487 2.796-15.002 2.796-5.658 0-10.109-.798-13.353-2.394-3.245-1.594-5.933-4.129-8.064-7.601-2.132-3.472-3.198-7.554-3.198-12.246 0-6.678 2.138-12.08 6.415-16.209 4.277-4.129 10.182-6.194 17.717-6.194 6.113 0 10.94.925 14.479 2.775 3.539 1.85 6.234 4.532 8.084 8.044 1.85 3.513 2.775 8.085 2.775 13.715V848.704zM689.253 840.861c-.321-3.163-1.173-5.43-2.554-6.797-1.381-1.368-3.198-2.051-5.45-2.051-2.601 0-4.679 1.033-6.234 3.097-.992 1.286-1.623 3.204-1.89 5.751H689.253zM742.103 807.036h17.013l22.202 32.621v-32.621h17.174v58.963h-17.174l-22.081-32.374v32.374h-17.134V807.036zM807.501 844.762c0-6.515 2.198-11.885 6.596-16.108 4.397-4.223 10.337-6.335 17.818-6.335 8.553 0 15.015 2.481 19.386 7.441 3.512 3.995 5.269 8.916 5.269 14.761 0 6.57-2.179 11.953-6.536 16.148-4.358 4.198-10.384 6.295-18.079 6.295-6.865 0-12.415-1.743-16.651-5.229C810.102 857.419 807.501 851.76 807.501 844.762zM823.911 844.722c0 3.807.771 6.623 2.313 8.446 1.542 1.823 3.479 2.734 5.812 2.734 2.36 0 4.297-.898 5.812-2.695 1.514-1.795 2.272-4.679 2.272-8.647 0-3.7-.764-6.456-2.292-8.265-1.528-1.809-3.419-2.715-5.671-2.715-2.387 0-4.357.918-5.912 2.755C824.689 838.173 823.911 840.969 823.911 844.722zM884.201 807.036v16.249h9.009v11.985h-9.009v15.133c0 1.82.174 3.024.523 3.613.536.91 1.475 1.364 2.816 1.364 1.206 0 2.895-.348 5.067-1.044l1.207 11.3c-4.049.884-7.83 1.327-11.342 1.327-4.076 0-7.079-.523-9.009-1.568-1.931-1.044-3.358-2.63-4.284-4.759-.925-2.129-1.388-5.577-1.388-10.344V835.27h-6.033v-11.985h6.033v-7.843L884.201 807.036zM929.65 807.036h45.047v12.669h-26.746v10.296h22.845v11.905h-22.845v24.092h-18.3V807.036zM978.598 844.762c0-6.515 2.198-11.885 6.596-16.108 4.397-4.223 10.336-6.335 17.818-6.335 8.553 0 15.015 2.481 19.386 7.441 3.513 3.995 5.269 8.916 5.269 14.761 0 6.57-2.179 11.953-6.536 16.148-4.358 4.198-10.384 6.295-18.079 6.295-6.865 0-12.415-1.743-16.652-5.229C981.198 857.419 978.598 851.76 978.598 844.762zM995.008 844.722c0 3.807.771 6.623 2.313 8.446 1.542 1.823 3.479 2.734 5.812 2.734 2.36 0 4.297-.898 5.812-2.695 1.514-1.795 2.272-4.679 2.272-8.647 0-3.7-.764-6.456-2.292-8.265-1.528-1.809-3.419-2.715-5.671-2.715-2.387 0-4.357.918-5.912 2.755C995.785 838.173 995.008 840.969 995.008 844.722zM1080.557 865.998h-15.284v-6.918c-2.279 2.843-4.579 4.867-6.898 6.073-2.32 1.206-5.168 1.811-8.547 1.811-4.505 0-8.038-1.348-10.598-4.043-2.561-2.694-3.841-6.844-3.841-12.447v-27.189h16.45v23.489c0 2.681.496 4.585 1.488 5.711.991 1.126 2.386 1.69 4.182 1.69 1.957 0 3.56-.751 4.807-2.252s1.87-4.196 1.87-8.085v-20.552h16.37V865.998zM1090.491 823.285h15.243v6.958c2.279-2.841 4.585-4.873 6.918-6.093 2.333-1.22 5.175-1.83 8.527-1.83 4.531 0 8.078 1.348 10.638 4.042 2.56 2.695 3.841 6.858 3.841 12.489v27.148h-16.45V842.51c0-2.681-.496-4.578-1.488-5.691-.992-1.112-2.387-1.669-4.183-1.669-1.984 0-3.593.751-4.826 2.252-1.234 1.502-1.85 4.196-1.85 8.084v20.513h-16.37V823.285zM1190.399 807.036v58.963h-15.324v-6.315c-2.145 2.682-4.102 4.492-5.872 5.431-2.36 1.233-4.987 1.85-7.883 1.85-5.819 0-10.263-2.213-13.333-6.637-3.07-4.424-4.605-9.8-4.605-16.128 0-7.08 1.696-12.495 5.088-16.25 3.392-3.754 7.702-5.63 12.931-5.63 2.547 0 4.859.43 6.938 1.288 2.078.858 3.922 2.145 5.531 3.86v-20.431H1190.399zM1173.989 844.521c0-3.351-.711-5.852-2.131-7.501-1.422-1.649-3.218-2.474-5.39-2.474-1.904 0-3.499.791-4.786 2.373-1.287 1.583-1.93 4.237-1.93 7.964 0 3.486.664 6.04 1.991 7.662 1.327 1.622 2.969 2.433 4.927 2.433 2.092 0 3.834-.818 5.229-2.453C1173.291 850.89 1173.989 848.222 1173.989 844.521zM1200.413 849.588h17.496v16.41h-17.496V849.588zM1227.844 849.588h17.496v16.41h-17.496V849.588zM1255.274 849.588h17.496v16.41h-17.496V849.588z" class="color7775FF svgShape"></path></svg></g></svg>